# xmcd
#
# Track frame offsets: 
#        150
#        16429
#        29190
#        43990
#        59420
#        75558
#        90528
#        106780
#        122916
#        137871
#
# Disc length: 2032 seconds
#
# Revision: 0
# Processed by: cddbd v1.5.2PL0 Copyright (c) Steve Scherf et al.
# Submitted via: ExactAudioCopyFreeDBPlugin 1.0
#
DISCID=8907ee0a
DTITLE=Various Artist - Official 2014 ACM Awards ZinePak
DYEAR=2014
DGENRE=New Country
TTITLE0=The Swon Brothers - Later On
TTITLE1=Eric Paslay - Friday Night
TTITLE2=Corey Smith - Ain't Going Out Tonight
TTITLE3=Katie Armiger - Black And White
TTITLE4=Joel Crouse - Why God Made Love Songs
TTITLE5=Weston Burt - Smile That Smile
TTITLE6=Natalie Stovall And The Drive - Baby Come On With It
TTITLE7=Blackjack Billy - Get Some
TTITLE8=Leah Turner - Take The Keys
TTITLE9=Johnny T - Buzzin'
EXTD=
EXTT0=
EXTT1=
EXTT2=
EXTT3=
EXTT4=
EXTT5=
EXTT6=
EXTT7=
EXTT8=
EXTT9=
PLAYORDER=
